PathFileType	4	(x/y/z)	S09_PSF_T14
DataRate	CameraRate	NumFrames	NumMarkers	Units	OrigDataRate	OrigDataStartFrame	OrigNumFrames
240	240	9	51	mm	240	389	444
Frame#	Time	Sternum			R.Acromium			L.Acromium			Top.Head			R.ASIS			L.ASIS			R.PSIS			L.PSIS			R.Great.Tro			L.Great.Tro			R.Iliac.Crest			L.Iliac.Crest			V.Sacral			R.Thigh.Upper.Post			R.Thigh.Lower.Ant			R.Thigh.Lower.Post			R.Thigh.Upper.Ant			R.Knee.Lat			R.Knee.Med			R.Shank.Upper.Post			R.Shank.Lower.Ant			R.Shank.Lower.Post			R.Shank.Upper.Ant			R.Ankle.Lat			R.Ankle.Med			R.Heel.Upper			R.Heel.Med			R.Heel.Lat			R.Toe.Lat			R.Toe.Med			R.Toe.Tip			L.Thigh.Upper.Post			L.Thigh.Lower.Ant			L.Thigh.Lower.Post			L.Thigh.Upper.Ant			L.Knee.Lat			L.Knee.Med			L.Shank.Upper.Post			L.Shank.Lower.Ant			L.Shank.Lower.Post			L.Shank.Upper.Ant			L.Ankle.Lat			L.Ankle.Med			L.Heel.Upper			L.Heel.Med			L.Heel.Lat			L.Toe.Lat			L.Toe.Med			L.Toe.Tip			Cervical.Spine			Back			
		X1	Y1	Z1	X2	Y2	Z2	X3	Y3	Z3	X4	Y4	Z4	X5	Y5	Z5	X6	Y6	Z6	X7	Y7	Z7	X8	Y8	Z8	X9	Y9	Z9	X10	Y10	Z10	X11	Y11	Z11	X12	Y12	Z12	X13	Y13	Z13	X14	Y14	Z14	X15	Y15	Z15	X16	Y16	Z16	X17	Y17	Z17	X18	Y18	Z18	X19	Y19	Z19	X20	Y20	Z20	X21	Y21	Z21	X22	Y22	Z22	X23	Y23	Z23	X24	Y24	Z24	X25	Y25	Z25	X26	Y26	Z26	X27	Y27	Z27	X28	Y28	Z28	X29	Y29	Z29	X30	Y30	Z30	X31	Y31	Z31	X32	Y32	Z32	X33	Y33	Z33	X34	Y34	Z34	X35	Y35	Z35	X36	Y36	Z36	X37	Y37	Z37	X38	Y38	Z38	X39	Y39	Z39	X40	Y40	Z40	X41	Y41	Z41	X42	Y42	Z42	X43	Y43	Z43	X44	Y44	Z44	X45	Y45	Z45	X46	Y46	Z46	X47	Y47	Z47	X48	Y48	Z48	X49	Y49	Z49	X50	Y50	Z50	X51	Y51	Z51	

389	1.6167	489.96	1180.8	330.71	349.09	1428.9	482.51	365.84	1429.7	166.69	362.28	1736.2	320.1	445.14	1021.7	432.8	431.04	1020.1	187.22	218.64	1034.8	368.73	222.85	1044.1	279.58	375.77	932.09	511.45	349.77	930.47	125.21	353.97	1095.9	481.88	324.16	1115.5	158.65	202.46	1004.7	318.73	464.26	693.81	497.38	567.51	626.43	458.13	492.35	606.02	472.42	533.48	707.83	482.62	569.69	548.28	456.39	570.68	534.89	330.99	542.52	365.01	465.41	624.68	325.41	464.38	561.36	290.9	458.32	600.13	394.86	472.04	642.99	116.55	453.05	668.89	141.43	373.15	597.35	76.937	391.2	622.22	50.783	365.9	604.48	48.814	428.02	749.28	86.806	503.92	806.07	109.27	409.65	835.87	139.91	458.12	249.37	689.25	193.55	313.2	580.31	194.8	249.11	600.39	214.04	314.13	666.32	169.11	283.93	503.97	209.72	311.3	522.26	341.09	208.95	379.77	209.09	254.26	280.69	228.01	194.48	305.2	222.17	268.12	356.66	215.93	175.21	107.72	260.44	191.41	105.09	352.02	99.389	76.382	313.53	110.88	50.465	345.66	98.45	48.932	285.17	270.26	41.967	226.98	310.48	38.948	335.74	360.87	51.748	274.94	280.91	1482.9	332.18	226.12	1216.9	313.87
390	1.6208	495.16	1180	330.73	354.28	1428.1	482.6	371.01	1428.9	166.76	367.55	1735.4	320.17	450.71	1020.7	432.82	435.97	1019.4	187.28	224.04	1034.2	369.15	228.07	1043.6	280.01	381.11	930.97	511.39	354.05	930.07	125.24	359.53	1094.9	482.16	329.26	1115	158.92	207.66	1004.3	319.18	468.27	692.26	497.2	571.14	624.36	457.88	495.85	604.36	472.09	537.56	705.92	482.46	573.35	546.91	456.02	574.08	533.39	330.14	550.24	363.42	464.89	633.34	325.62	463.71	570.81	289.7	457.69	607.2	394.55	471.4	656.94	116.88	452.26	681.89	142.66	372.38	612.1	76.068	390.64	637.61	50.68	365.12	620.14	48.061	427.3	764.16	89.913	502.82	819.98	114.19	408.37	849.03	145.57	456.8	252.56	689.44	193.98	315.77	580.12	194.73	251.89	600.55	214.34	317.06	666.16	169.16	286.18	503.9	209.7	314.3	521.9	340.94	210.62	380.06	209.2	255.45	280.71	227.97	195.78	305.55	222.32	269.69	356.61	215.86	175.54	108.03	260.61	191.84	105.36	352.16	99.566	76.658	313.73	111.02	50.674	345.81	98.57	49.258	285.34	270.34	41.963	227.04	310.63	38.797	335.71	361.06	51.386	274.91	286.12	1482.1	332.28	231.28	1216.1	313.99
391	1.625	500.38	1179.1	330.75	359.5	1427.3	482.69	376.18	1428	166.84	372.81	1734.6	320.25	456.28	1019.7	432.85	440.92	1018.7	187.35	229.47	1033.6	369.6	233.3	1043.2	280.46	386.48	929.83	511.34	358.35	929.67	125.28	365.12	1094	482.44	334.38	1114.4	159.21	212.88	1003.9	319.64	472.3	690.73	497.04	574.8	622.31	457.65	499.37	602.71	471.78	541.67	704.01	482.33	577.03	545.56	455.67	577.47	531.89	329.32	557.87	361.91	464.39	641.84	325.87	463.02	580.11	288.62	457.06	614.18	394.26	470.76	670.54	117.35	451.41	694.51	143.98	371.55	626.48	75.386	390.02	652.56	50.755	364.28	635.4	47.509	426.53	778.62	93.093	501.64	833.42	119.12	406.99	861.74	151.18	455.38	255.82	689.62	194.4	318.4	579.92	194.67	254.74	600.7	214.64	320.05	665.99	169.2	288.51	503.82	209.68	317.34	521.53	340.8	212.36	380.34	209.31	256.69	280.72	227.92	197.14	305.91	222.45	271.32	356.55	215.8	175.89	108.37	260.78	192.29	105.64	352.28	99.754	76.967	313.92	111.18	50.918	345.96	98.695	49.613	285.5	270.41	41.955	227.1	310.77	38.651	335.67	361.25	51.021	274.88	291.34	1481.4	332.4	236.45	1215.2	314.14
392	1.6292	505.62	1178.2	330.79	364.73	1426.4	482.8	381.37	1427.1	166.92	378.07	1733.8	320.33	461.87	1018.6	432.88	445.88	1018	187.42	234.91	1033	370.06	238.54	1042.7	280.93	391.88	928.69	511.32	362.67	929.26	125.33	370.72	1093	482.74	339.49	1113.8	159.51	218.11	1003.4	320.12	476.36	689.21	496.88	578.5	620.28	457.45	502.93	601.08	471.46	545.82	702.12	482.23	580.77	544.24	455.35	580.86	530.42	328.52	565.4	360.5	463.92	650.16	326.15	462.3	589.23	287.63	456.44	621.08	393.99	470.11	683.76	117.93	450.51	706.74	145.37	370.68	640.44	74.869	389.35	667.06	50.984	363.39	650.24	47.133	425.71	792.63	96.304	500.39	846.35	124	405.53	873.97	156.7	453.87	259.14	689.76	194.81	321.1	579.7	194.61	257.66	600.82	214.94	323.1	665.8	169.25	290.92	503.72	209.67	320.45	521.13	340.66	214.18	380.62	209.41	257.99	280.72	227.88	198.56	306.27	222.58	273.02	356.48	215.74	176.25	108.72	260.94	192.74	105.95	352.4	99.955	77.313	314.1	111.34	51.202	346.1	98.826	50	285.65	270.49	41.942	227.15	310.92	38.51	335.63	361.45	50.653	274.84	296.57	1480.6	332.52	241.65	1214.4	314.3
393	1.6333	510.88	1177.3	330.83	369.98	1425.6	482.92	386.55	1426.2	167.02	383.33	1733	320.42	467.47	1017.6	432.91	450.85	1017.2	187.49	240.36	1032.3	370.54	243.78	1042.2	281.42	397.32	927.55	511.31	367.02	928.83	125.37	376.34	1092	483.04	344.61	1113.2	159.81	223.36	1002.9	320.62	480.47	687.72	496.73	582.27	618.29	457.26	506.56	599.48	471.15	550.02	700.27	482.15	584.57	542.95	455.03	584.27	528.97	327.75	572.84	359.16	463.47	658.32	326.44	461.56	598.18	286.74	455.83	627.89	393.74	469.45	696.58	118.59	449.54	718.55	146.8	369.74	653.95	74.494	388.63	681.07	51.34	362.44	664.6	46.907	424.83	806.17	99.505	499.07	858.77	128.79	404	885.72	162.1	452.27	262.53	689.87	195.21	323.88	579.46	194.55	260.65	600.92	215.23	326.22	665.59	169.29	293.42	503.6	209.66	323.61	520.72	340.53	216.08	380.9	209.51	259.34	280.72	227.84	200.05	306.63	222.7	274.79	356.4	215.69	176.62	109.1	261.09	193.21	106.27	352.51	100.17	77.7	314.27	111.51	51.532	346.23	98.963	50.421	285.79	270.56	41.926	227.21	311.07	38.373	335.58	361.65	50.281	274.8	301.81	1479.7	332.67	246.87	1213.5	314.48
394	1.6375	516.16	1176.5	330.87	375.24	1424.7	483.06	391.75	1425.3	167.12	388.58	1732.2	320.52	473.08	1016.5	432.94	455.82	1016.5	187.56	245.83	1031.6	371.03	249.03	1041.7	281.93	402.8	926.42	511.33	371.39	928.4	125.42	381.99	1091	483.34	349.73	1112.6	160.12	228.63	1002.4	321.13	484.65	686.26	496.58	586.12	616.35	457.08	510.27	597.93	470.85	554.29	698.46	482.08	588.45	541.7	454.73	587.71	527.57	327	580.17	357.9	463.04	666.29	326.73	460.81	606.93	285.92	455.21	634.61	393.49	468.78	708.95	119.3	448.53	729.92	148.24	368.76	666.98	74.236	387.84	694.55	51.793	361.43	678.46	46.802	423.89	819.2	102.65	497.68	870.66	133.45	402.39	896.98	167.3	450.6	266	689.96	195.6	326.75	579.2	194.5	263.73	600.98	215.51	329.42	665.36	169.33	296.01	503.46	209.66	326.84	520.28	340.41	218.06	381.17	209.61	260.76	280.71	227.81	201.61	306.99	222.82	276.65	356.31	215.64	177.01	109.51	261.23	193.69	106.6	352.61	100.4	78.133	314.42	111.68	51.911	346.36	99.108	50.882	285.92	270.65	41.908	227.26	311.22	38.241	335.52	361.85	49.906	274.75	307.06	1478.9	332.82	252.11	1212.6	314.68
395	1.6417	521.45	1175.6	330.93	380.53	1423.9	483.2	396.95	1424.4	167.23	393.83	1731.3	320.62	478.71	1015.5	432.96	460.81	1015.8	187.63	251.32	1030.9	371.55	254.28	1041.1	282.46	408.31	925.32	511.38	375.78	927.94	125.48	387.65	1090	483.64	354.83	1112	160.43	233.9	1001.8	321.67	488.9	684.84	496.42	590.06	614.49	456.89	514.09	596.44	470.53	558.63	696.72	482.03	592.42	540.5	454.43	591.19	526.22	326.28	587.4	356.71	462.62	674.09	327.01	460.03	615.47	285.18	454.6	641.25	393.25	468.11	720.87	120.04	447.46	740.84	149.66	367.72	679.51	74.069	386.99	707.48	52.313	360.37	691.78	46.787	422.88	831.7	105.7	496.23	882.02	137.92	400.72	907.73	172.28	448.87	269.55	690	195.98	329.72	578.92	194.46	266.9	601.01	215.79	332.71	665.1	169.38	298.71	503.29	209.68	330.13	519.83	340.31	220.14	381.43	209.7	262.25	280.69	227.79	203.26	307.36	222.93	278.58	356.2	215.61	177.42	109.95	261.35	194.18	106.96	352.7	100.65	78.614	314.56	111.87	52.343	346.48	99.261	51.386	286.04	270.73	41.888	227.31	311.37	38.116	335.46	362.06	49.529	274.7	312.33	1478.1	332.99	257.37	1211.8	314.9
396	1.6458	526.76	1174.7	330.98	385.82	1423	483.36	402.17	1423.4	167.35	399.07	1730.5	320.74	484.34	1014.4	432.98	465.8	1015	187.7	256.81	1030.2	372.09	259.54	1040.6	283.01	413.87	924.23	511.45	380.2	927.47	125.54	393.34	1089.1	483.94	359.93	1111.3	160.75	239.19	1001.2	322.22	493.23	683.48	496.26	594.11	612.72	456.7	518.01	595.01	470.22	563.06	695.04	481.97	596.51	539.35	454.12	594.75	524.91	325.6	594.51	355.6	462.22	681.7	327.27	459.23	623.8	284.49	454	647.8	393	467.44	732.3	120.77	446.34	751.29	151.03	366.63	691.5	73.966	386.08	719.83	52.87	359.23	704.53	46.833	421.82	843.65	108.62	494.72	892.82	142.16	399	917.98	176.99	447.08	273.18	690	196.35	332.78	578.62	194.43	270.16	601	216.07	336.08	664.82	169.43	301.53	503.1	209.7	333.51	519.35	340.22	222.31	381.69	209.79	263.82	280.66	227.78	204.99	307.72	223.04	280.61	356.08	215.59	177.85	110.42	261.47	194.69	107.35	352.78	100.91	79.149	314.68	112.06	52.832	346.59	99.424	51.936	286.16	270.83	41.867	227.36	311.52	37.997	335.4	362.27	49.149	274.65	317.61	1477.3	333.17	262.66	1210.9	315.13
397	1.65	532.1	1173.9	331.05	391.14	1422.2	483.54	407.39	1422.5	167.47	404.32	1729.7	320.85	489.97	1013.4	432.99	470.79	1014.3	187.77	262.31	1029.4	372.64	264.8	1040	283.58	419.47	923.19	511.54	384.65	926.99	125.61	399.05	1088.1	484.23	365.01	1110.7	161.07	244.48	1000.6	322.8	497.66	682.17	496.1	598.28	611.04	456.5	522.07	593.65	469.9	567.57	693.45	481.91	600.71	538.27	453.8	598.39	523.67	324.94	601.5	354.54	461.82	689.13	327.48	458.4	631.89	283.84	453.39	654.27	392.74	466.75	743.21	121.47	445.18	761.25	152.33	365.5	702.92	73.899	385.11	731.58	53.433	358.04	716.68	46.908	420.69	855.04	111.35	493.16	903.07	146.14	397.23	927.71	181.38	445.26	276.89	689.96	196.7	335.96	578.29	194.41	273.53	600.95	216.34	339.55	664.51	169.48	304.46	502.88	209.74	336.96	518.85	340.15	224.59	381.94	209.88	265.45	280.63	227.77	206.8	308.08	223.15	282.74	355.93	215.58	178.3	110.92	261.57	195.21	107.75	352.85	101.19	79.74	314.79	112.27	53.383	346.69	99.597	52.537	286.26	270.92	41.846	227.4	311.68	37.886	335.33	362.48	48.768	274.59	322.91	1476.4	333.36	267.96	1210	315.39
